<?xml version="1.0" encoding="UTF-8"?>
<svg xmlns="http://www.w3.org/2000/svg" xmlns:xlink="http://www.w3.org/1999/xlink" width="1440" height="1056" viewBox="0 0 1440 1056" font-family="SF Pro Text, -apple-system, Helvetica Neue, Helvetica, Arial, sans-serif">

<defs>
  <linearGradient id="skyWarm" x1="0" y1="0" x2="0" y2="1"><stop offset="0" stop-color="#6E98C8"/><stop offset="1" stop-color="#D8C9A6"/></linearGradient>
  <linearGradient id="skyBlue" x1="0" y1="0" x2="0" y2="1"><stop offset="0" stop-color="#2F5E93"/><stop offset="1" stop-color="#9DC0DE"/></linearGradient>
  <linearGradient id="dusk" x1="0" y1="0" x2="0" y2="1"><stop offset="0" stop-color="#3B3552"/><stop offset=".6" stop-color="#C47E5A"/><stop offset="1" stop-color="#E9B97A"/></linearGradient>
  <linearGradient id="snow" x1="0" y1="0" x2="0" y2="1"><stop offset="0" stop-color="#B9C6D2"/><stop offset="1" stop-color="#F2F2EE"/></linearGradient>
  <linearGradient id="sea" x1="0" y1="0" x2="0" y2="1"><stop offset="0" stop-color="#88A9C3"/><stop offset=".55" stop-color="#C9D6DE"/><stop offset=".56" stop-color="#2E5670"/><stop offset="1" stop-color="#173246"/></linearGradient>
  <symbol id="pA" viewBox="0 0 300 400" preserveAspectRatio="xMidYMid slice">
    <rect width="300" height="400" fill="url(#skyWarm)"/>
    <rect x="150" y="90" width="150" height="310" fill="#7A2E22"/><rect x="170" y="120" width="40" height="60" fill="#C8A060"/><rect x="230" y="120" width="40" height="60" fill="#C8A060"/>
    <rect x="160" y="200" width="130" height="18" fill="#D93B2B"/><rect x="0" y="230" width="160" height="170" fill="#4A4038"/>
    <rect x="0" y="330" width="300" height="70" fill="#22242A"/><rect x="40" y="300" width="80" height="40" rx="10" fill="#1C2A3A"/>
    <line x1="90" y1="40" x2="90" y2="240" stroke="#3A3A3A" stroke-width="3"/>
  </symbol>
  <symbol id="pB" viewBox="0 0 300 400" preserveAspectRatio="xMidYMid slice">
    <rect width="300" height="400" fill="url(#skyBlue)"/>
    <ellipse cx="150" cy="420" rx="260" ry="120" fill="#2F4A2A"/>
    <rect x="132" y="170" width="36" height="150" rx="16" fill="#1E1B1A"/><circle cx="150" cy="150" r="22" fill="#1E1B1A"/>
    <path d="M30 330 Q70 200 110 330 Z" fill="#355C33"/><path d="M200 340 Q250 180 290 340 Z" fill="#2C4F2B"/>
  </symbol>
  <symbol id="pC" viewBox="0 0 300 400" preserveAspectRatio="xMidYMid slice">
    <rect width="300" height="400" fill="url(#dusk)"/><circle cx="210" cy="250" r="34" fill="#F6D58E"/>
    <rect x="0" y="300" width="300" height="100" fill="#2A2230"/><rect x="40" y="220" width="22" height="90" fill="#2A2230"/>
  </symbol>
  <symbol id="pD" viewBox="0 0 300 400" preserveAspectRatio="xMidYMid slice">
    <rect width="300" height="400" fill="#C9B79A"/><rect x="40" y="40" width="220" height="260" fill="#E8DCC6"/>
    <rect x="70" y="80" width="160" height="200" fill="#6F8C7A"/><rect x="0" y="320" width="300" height="80" fill="#5A4636"/>
  </symbol>
  <symbol id="lA" viewBox="0 0 450 300" preserveAspectRatio="xMidYMid slice">
    <rect width="450" height="300" fill="url(#skyBlue)"/>
    <rect x="30" y="140" width="40" height="120" fill="#3E4B5A"/><rect x="80" y="100" width="50" height="160" fill="#56677A"/><rect x="140" y="160" width="60" height="100" fill="#3B4654"/>
    <rect x="210" y="70" width="34" height="190" fill="#6F8296"/><rect x="260" y="130" width="70" height="130" fill="#465566"/><rect x="340" y="110" width="60" height="150" fill="#5B6B7D"/>
    <rect x="0" y="250" width="450" height="50" fill="#22303C"/>
  </symbol>
  <symbol id="lB" viewBox="0 0 450 300" preserveAspectRatio="xMidYMid slice">
    <rect width="450" height="300" fill="url(#snow)"/><path d="M0 200 L120 90 L220 190 L310 110 L450 220 L450 300 L0 300Z" fill="#E6E9EC"/>
    <rect x="260" y="220" width="16" height="40" fill="#2A2A2A"/><circle cx="268" cy="212" r="9" fill="#2A2A2A"/>
  </symbol>
  <symbol id="lC" viewBox="0 0 450 300" preserveAspectRatio="xMidYMid slice"><rect width="450" height="300" fill="url(#sea)"/><rect x="300" y="120" width="12" height="50" fill="#EDEDED"/></symbol>
  <symbol id="lD" viewBox="0 0 450 300" preserveAspectRatio="xMidYMid slice">
    <rect width="450" height="300" fill="url(#dusk)"/><rect x="0" y="210" width="450" height="90" fill="#3A2C2A"/>
    <rect x="170" y="90" width="110" height="130" fill="#D7D2C7"/><rect x="200" y="120" width="50" height="100" fill="#3D3A36"/>
  </symbol>
  <marker id="arr" viewBox="0 0 10 10" refX="9" refY="5" markerWidth="7" markerHeight="7" orient="auto-start-reverse"><path d="M0 0 L10 5 L0 10z" fill="#DAD8D4"/></marker>
  <marker id="arrA" viewBox="0 0 10 10" refX="9" refY="5" markerWidth="7" markerHeight="7" orient="auto-start-reverse"><path d="M0 0 L10 5 L0 10z" fill="#E1A95F"/></marker>
</defs>
<rect width="1440" height="1056" fill="#141414"/>
<rect x="0" y="0" width="1440" height="900" rx="0" fill="#1F1F1E" stroke="none" stroke-width="1" /><rect x="8" y="8" width="254" height="884" rx="10" fill="#2D2D2C" stroke="none" stroke-width="1" /><text x="24" y="31" font-size="12" font-weight="700" fill="#F9F7F3" text-anchor="start">Film and Print</text><rect x="18" y="42" width="234" height="150" rx="8" fill="#1A1A19" stroke="none" stroke-width="1" /><use href="#pA" x="82" y="66" width="52" height="70" /><rect x="134" y="66" width="3" height="70" rx="0" fill="#0B0B0B" stroke="none" stroke-width="1" /><use href="#pB" x="137" y="66" width="52" height="70" /><path d="M22 210.5 L26.5 214 L22 217.5Z" fill="#F9F7F3"/><text x="34" y="218" font-size="11" font-weight="700" fill="#F9F7F3" text-anchor="start">Film</text><text x="236" y="217.5" font-size="9" font-weight="600" fill="#898989" text-anchor="end">Koda Gold 200</text><g transform="translate(244,214) rotate(-35)" fill="none" stroke="#898989" stroke-width="1.3"><rect x="-6.5" y="-2.2" width="7" height="4.4" rx="2.2"/><rect x="-0.5" y="-2.2" width="7" height="4.4" rx="2.2"/></g><path d="M20.5 238 L27.5 238 L24 242.5Z" fill="#F9F7F3"/><text x="34" y="244" font-size="11" font-weight="700" fill="#F9F7F3" text-anchor="start">Half-Frame Pair</text><text x="34" y="267.5" font-size="9" font-weight="600" fill="#DAD8D4" text-anchor="start">Order</text><text x="122" y="267.5" font-size="9" font-weight="600" fill="#F9F7F3" text-anchor="start">_DSC2484</text><text x="176" y="267.5" font-size="9" font-weight="600" fill="#898989" text-anchor="start">|</text><text x="182" y="267.5" font-size="9" font-weight="600" fill="#F9F7F3" text-anchor="start">_DSC2704</text><rect x="230" y="257" width="20" height="14" rx="4" fill="#5F5F5F" stroke="none" stroke-width="1" /><path d="M234 262 h12 l-3 -2.5 M246 266 h-12 l3 2.5" stroke="#F9F7F3" stroke-width="1.1" fill="none"/><text x="34" y="289.5" font-size="9" font-weight="600" fill="#DAD8D4" text-anchor="start">Layout</text><rect x="122" y="278" width="128" height="16" rx="8" fill="#5F5F5F" stroke="none" stroke-width="1" /><rect x="123" y="279" width="62" height="14" rx="7" fill="#FAF8F4" stroke="none" stroke-width="1" /><text x="154" y="289.5" font-size="8.5" font-weight="600" fill="#0F0E0E" text-anchor="middle">Side by side</text><text x="218" y="289.5" font-size="8.5" font-weight="600" fill="#F9F7F3" text-anchor="middle">Stacked</text><text x="34" y="311.5" font-size="9" font-weight="600" fill="#DAD8D4" text-anchor="start">Gap</text><rect x="122" y="300" width="128" height="16" rx="8" fill="#5F5F5F" stroke="none" stroke-width="1" /><rect x="123" y="301" width="40.666666666666664" height="14" rx="7" fill="#FAF8F4" stroke="none" stroke-width="1" /><text x="143.33333333333334" y="311.5" font-size="8.5" font-weight="600" fill="#0F0E0E" text-anchor="middle">Black</text><text x="186" y="311.5" font-size="8.5" font-weight="600" fill="#F9F7F3" text-anchor="middle">White</text><text x="228.66666666666666" y="311.5" font-size="8.5" font-weight="600" fill="#F9F7F3" text-anchor="middle">None</text><text x="34" y="333.5" font-size="9" font-weight="600" fill="#DAD8D4" text-anchor="start">Width</text><line x1="126" y1="330" x2="216" y2="330" stroke="#5F5F5F" stroke-width="2" stroke-linecap="round"/><circle cx="155.7" cy="330" r="4.5" fill="#FAF8F4"/><text x="250" y="333.5" font-size="9" font-weight="600" fill="#F9F7F3" text-anchor="end">1.0 mm</text><text x="34" y="353" font-size="8" font-weight="600" fill="#898989" text-anchor="start">135 half frame: 18 × 24 mm a side.</text><text x="34" y="364" font-size="8" font-weight="600" fill="#898989" text-anchor="start">Film Format is set by the pair.</text><rect x="34" y="371" width="64" height="16" rx="8" fill="#5F5F5F" stroke="none" stroke-width="1" /><text x="66" y="382.5" font-size="8.5" font-weight="600" fill="#F9F7F3" text-anchor="middle">Unpair</text><path d="M22 401.5 L26.5 405 L22 408.5Z" fill="#F9F7F3"/><text x="34" y="409" font-size="11" font-weight="700" fill="#F9F7F3" text-anchor="start">Film Edge</text><text x="248" y="408.5" font-size="9" font-weight="600" fill="#898989" text-anchor="end">Off</text><path d="M22 427.5 L26.5 431 L22 434.5Z" fill="#F9F7F3"/><text x="34" y="435" font-size="11" font-weight="700" fill="#F9F7F3" text-anchor="start">Date Back</text><text x="248" y="434.5" font-size="9" font-weight="600" fill="#898989" text-anchor="end">Off</text><path d="M22 453.5 L26.5 457 L22 460.5Z" fill="#F9F7F3"/><text x="34" y="461" font-size="11" font-weight="700" fill="#F9F7F3" text-anchor="start">Print</text><text x="236" y="460.5" font-size="9" font-weight="600" fill="#898989" text-anchor="end">Supra Endura</text><g transform="translate(244,457) rotate(-35)" fill="none" stroke="#898989" stroke-width="1.3"><rect x="-6.5" y="-2.2" width="7" height="4.4" rx="2.2"/><rect x="-0.5" y="-2.2" width="7" height="4.4" rx="2.2"/></g><path d="M22 479.5 L26.5 483 L22 486.5Z" fill="#F9F7F3"/><text x="34" y="487" font-size="11" font-weight="700" fill="#F9F7F3" text-anchor="start">Crop</text><text x="248" y="486.5" font-size="9" font-weight="600" fill="#898989" text-anchor="end">Each half · 3:4</text><path d="M22 505.5 L26.5 509 L22 512.5Z" fill="#F9F7F3"/><text x="34" y="513" font-size="11" font-weight="700" fill="#F9F7F3" text-anchor="start">Enlarger</text><text x="236" y="512.5" font-size="9" font-weight="600" fill="#898989" text-anchor="end"></text><g transform="translate(244,509) rotate(-35)" fill="none" stroke="#898989" stroke-width="1.3"><rect x="-6.5" y="-2.2" width="7" height="4.4" rx="2.2"/><rect x="-0.5" y="-2.2" width="7" height="4.4" rx="2.2"/></g><rect x="1144" y="8" width="288" height="884" rx="10" fill="#2D2D2C" stroke="none" stroke-width="1" /><text x="1158" y="31" font-size="12" font-weight="700" fill="#F9F7F3" text-anchor="start">Parameters</text><rect x="1240" y="19" width="48" height="16" rx="8" fill="none" stroke="#E1A95F" stroke-width="1" /><text x="1264" y="30.5" font-size="8.5" font-weight="600" fill="#E1A95F" text-anchor="middle">Pre-Dev</text><text x="1296" y="30.5" font-size="8.5" font-weight="600" fill="#898989" text-anchor="start">Post-Dev</text><rect x="1152" y="46" width="272" height="30" rx="8" fill="#1A1A19" stroke="none" stroke-width="1" /><rect x="1160" y="53" width="104" height="16" rx="8" fill="#5F5F5F" stroke="none" stroke-width="1" /><rect x="1161" y="54" width="50" height="14" rx="7" fill="#FAF8F4" stroke="none" stroke-width="1" /><text x="1186" y="64.5" font-size="8.5" font-weight="600" fill="#0F0E0E" text-anchor="middle">Left</text><text x="1238" y="64.5" font-size="8.5" font-weight="600" fill="#F9F7F3" text-anchor="middle">Right</text><text x="1416" y="64.5" font-size="8.5" font-weight="600" fill="#DAD8D4" text-anchor="end">_DSC2484.NEF · left half</text><path d="M1156.5 94 L1163.5 94 L1160 98.5Z" fill="#F9F7F3"/><text x="1170" y="100" font-size="10.5" font-weight="700" fill="#F9F7F3" text-anchor="start">Latitude</text><text x="1418" y="99.5" font-size="8.5" font-weight="600" fill="#E1A95F" text-anchor="end">this half</text><rect x="1160" y="114" width="256" height="50" rx="6" fill="#1A1A19" stroke="none" stroke-width="1" /><path d="M1166 160 L1166 157 L1186 155 L1206 152 L1226 146 L1246 140 L1266 134 L1286 126 L1306 120 L1326 124 L1346 132 L1366 142 L1386 150 L1406 154 L1406 160Z" fill="#8A8A8A" opacity=".85"/><path d="M1156.5 176 L1163.5 176 L1160 180.5Z" fill="#F9F7F3"/><text x="1170" y="182" font-size="10.5" font-weight="700" fill="#F9F7F3" text-anchor="start">Input / Camera</text><text x="1418" y="181.5" font-size="8.5" font-weight="600" fill="#E1A95F" text-anchor="end">this half</text><text x="1170" y="201.5" font-size="9" font-weight="600" fill="#DAD8D4" text-anchor="start">Metering</text><rect x="1262" y="191" width="154" height="14" rx="4" fill="#5F5F5F" stroke="none" stroke-width="1" /><text x="1270" y="201.5" font-size="8.5" font-weight="600" fill="#F9F7F3" text-anchor="start">Custom</text><text x="1170" y="219.5" font-size="9" font-weight="600" fill="#DAD8D4" text-anchor="start">Film Exposure</text><line x1="1262" y1="216" x2="1382" y2="216" stroke="#5F5F5F" stroke-width="2" stroke-linecap="round"/><circle cx="1334" cy="216" r="4.5" fill="#FAF8F4"/><text x="1416" y="219.5" font-size="9" font-weight="600" fill="#F9F7F3" text-anchor="end">+0.3</text><text x="1170" y="237.5" font-size="9" font-weight="600" fill="#DAD8D4" text-anchor="start">Temperature</text><line x1="1262" y1="234" x2="1382" y2="234" stroke="#5F5F5F" stroke-width="2" stroke-linecap="round"/><circle cx="1322" cy="234" r="4.5" fill="#FAF8F4"/><text x="1416" y="237.5" font-size="9" font-weight="600" fill="#F9F7F3" text-anchor="end">5200</text><text x="1170" y="255.5" font-size="9" font-weight="600" fill="#DAD8D4" text-anchor="start">Tint</text><line x1="1262" y1="252" x2="1382" y2="252" stroke="#5F5F5F" stroke-width="2" stroke-linecap="round"/><circle cx="1316" cy="252" r="4.5" fill="#FAF8F4"/><text x="1416" y="255.5" font-size="9" font-weight="600" fill="#F9F7F3" text-anchor="end">−2.1</text><path d="M1156.5 276 L1163.5 276 L1160 280.5Z" fill="#F9F7F3"/><text x="1170" y="282" font-size="10.5" font-weight="700" fill="#F9F7F3" text-anchor="start">Film Format</text><g transform="translate(1414,278) rotate(-35)" fill="none" stroke="#898989" stroke-width="1.3"><rect x="-6.5" y="-2.2" width="7" height="4.4" rx="2.2"/><rect x="-0.5" y="-2.2" width="7" height="4.4" rx="2.2"/></g><text x="1404" y="281.5" font-size="8.5" font-weight="600" fill="#898989" text-anchor="end">both halves</text><text x="1170" y="301.5" font-size="9" font-weight="600" fill="#DAD8D4" text-anchor="start">Size</text><rect x="1262" y="291" width="70" height="14" rx="4" fill="#5F5F5F" stroke="none" stroke-width="1" opacity="0.5" /><text x="1268" y="301.5" font-size="8.5" font-weight="600" fill="#898989" text-anchor="start">135 half</text><text x="1418" y="301.5" font-size="8.5" font-weight="600" fill="#898989" text-anchor="end">Set by Pair</text><text x="1170" y="319.5" font-size="9" font-weight="600" fill="#DAD8D4" text-anchor="start">Side Length</text><text x="1268" y="319.5" font-size="8.5" font-weight="600" fill="#898989" text-anchor="start">24 mm</text><text x="1170" y="337.5" font-size="9" font-weight="600" fill="#DAD8D4" text-anchor="start">Grain</text><rect x="1407.5" y="329.5" width="9" height="9" rx="2" fill="#E1A95F" stroke="none" stroke-width="1" /><text x="1170" y="353.5" font-size="9" font-weight="600" fill="#DAD8D4" text-anchor="start">Halation</text><rect x="1407.5" y="345.5" width="9" height="9" rx="2" fill="#E1A95F" stroke="none" stroke-width="1" /><path d="M1156.5 374 L1163.5 374 L1160 378.5Z" fill="#F9F7F3"/><text x="1170" y="380" font-size="10.5" font-weight="700" fill="#F9F7F3" text-anchor="start">Scene Placement</text><text x="1418" y="379.5" font-size="8.5" font-weight="600" fill="#E1A95F" text-anchor="end">this half</text><text x="1170" y="399.5" font-size="9" font-weight="600" fill="#DAD8D4" text-anchor="start">Highlight</text><line x1="1262" y1="396" x2="1382" y2="396" stroke="#5F5F5F" stroke-width="2" stroke-linecap="round"/><circle cx="1336.4" cy="396" r="4.5" fill="#FAF8F4"/><text x="1416" y="399.5" font-size="9" font-weight="600" fill="#F9F7F3" text-anchor="end">0.56</text><text x="1170" y="417.5" font-size="9" font-weight="600" fill="#DAD8D4" text-anchor="start">Shadow</text><line x1="1262" y1="414" x2="1382" y2="414" stroke="#5F5F5F" stroke-width="2" stroke-linecap="round"/><circle cx="1274" cy="414" r="4.5" fill="#FAF8F4"/><text x="1416" y="417.5" font-size="9" font-weight="600" fill="#F9F7F3" text-anchor="end">0.00</text><rect x="1152" y="432" width="272" height="78" rx="8" fill="#1A1A19" stroke="none" stroke-width="1" /><text x="1162" y="447" font-size="8.5" font-weight="600" fill="#898989" text-anchor="start">Sections marked with the link change both halves:</text><text x="1162" y="459" font-size="8.5" font-weight="600" fill="#898989" text-anchor="start">one roll is one stock, one print, one development.</text><text x="1162" y="471" font-size="8.5" font-weight="600" fill="#898989" text-anchor="start">The rest belongs to the half picked above, or on the</text><text x="1162" y="483" font-size="8.5" font-weight="600" fill="#898989" text-anchor="start">canvas: exposure, white balance, placement, crop,</text><text x="1162" y="495" font-size="8.5" font-weight="600" fill="#898989" text-anchor="start">masks and Post-Dev.</text><rect x="270" y="8" width="866" height="38" rx="10" fill="#2D2D2C" stroke="none" stroke-width="1" /><rect x="560" y="19" width="52" height="16" rx="8" fill="none" stroke="#E1A95F" stroke-width="1" /><text x="586" y="30.5" font-size="8.5" font-weight="600" fill="#E1A95F" text-anchor="middle">Process</text><text x="622" y="30.5" font-size="8.5" font-weight="600" fill="#898989" text-anchor="start">Original</text><text x="670" y="30.5" font-size="8.5" font-weight="600" fill="#898989" text-anchor="start">_DSC2484 + _DSC2704 · half-frame pair · ProPhoto RGB</text><text x="1090" y="30.5" font-size="9" font-weight="600" fill="#F9F7F3" text-anchor="start">38 %</text><rect x="286" y="21" width="14" height="11" rx="2" fill="none" stroke="#F9F7F3" stroke-width="1" /><rect x="292" y="21" width="1" height="11" rx="0" fill="#F9F7F3" stroke="none" stroke-width="1" /><rect x="270" y="52" width="866" height="718" rx="10" fill="#5F5F5F" stroke="none" stroke-width="1" /><clipPath id="slotR"><rect x="713" y="164" width="370" height="493"/></clipPath><use href="#pA" x="323" y="164" width="370" height="493" /><rect x="693" y="164" width="20" height="493" rx="0" fill="#0B0B0B" stroke="none" stroke-width="1" /><use href="#pB" x="713" y="164" width="370" height="493" /><rect x="320" y="161" width="376" height="499" rx="0" fill="none" stroke="#FAF8F4" stroke-width="1.5" /><rect x="715" y="166" width="366" height="489" rx="0" fill="none" stroke="#FAF8F4" stroke-width="1" opacity="0.45" stroke-dasharray="5 4"/><text x="508" y="679" font-size="9.5" font-weight="600" fill="#F9F7F3" text-anchor="middle">Left · _DSC2484</text><text x="898" y="679" font-size="9.5" font-weight="600" fill="#CFCFCF" text-anchor="middle">Right · _DSC2704</text><text x="282" y="762" font-size="9" font-weight="600" fill="#D9D9D9" text-anchor="start">● Developed · both halves</text><text x="1124" y="762" font-size="9" font-weight="600" fill="#D9D9D9" text-anchor="end">Pair 8,222 × 5,333 · preview</text><circle cx="305" cy="176" r="10" fill="#E1A95F"/><text x="305" y="180" font-size="11" font-weight="700" fill="#0F0E0E" text-anchor="middle">1</text><circle cx="703" cy="146" r="10" fill="#E1A95F"/><text x="703" y="150" font-size="11" font-weight="700" fill="#0F0E0E" text-anchor="middle">2</text><circle cx="266" cy="214" r="10" fill="#E1A95F"/><text x="266" y="218" font-size="11" font-weight="700" fill="#0F0E0E" text-anchor="middle">3</text><circle cx="1134" cy="86" r="10" fill="#E1A95F"/><text x="1134" y="90" font-size="11" font-weight="700" fill="#0F0E0E" text-anchor="middle">4</text><circle cx="1134" cy="360" r="10" fill="#E1A95F"/><text x="1134" y="364" font-size="11" font-weight="700" fill="#0F0E0E" text-anchor="middle">5</text><rect x="270" y="778" width="866" height="114" rx="10" fill="#2D2D2C" stroke="none" stroke-width="1" /><path d="M286 829 l-5 6 5 6" stroke="#F9F7F3" fill="none" stroke-width="1.5"/><path d="M1120 829 l5 6 -5 6" stroke="#F9F7F3" fill="none" stroke-width="1.5"/><use href="#lA" x="300" y="803" width="96" height="64" /><use href="#lB" x="410" y="803" width="96" height="64" /><use href="#pA" x="520" y="805" width="46" height="60" /><rect x="566" y="805" width="2" height="60" rx="0" fill="#0B0B0B" stroke="none" stroke-width="1" /><use href="#pB" x="568" y="805" width="46" height="60" /><rect x="519" y="804" width="96" height="62" rx="2" fill="none" stroke="#FAF8F4" stroke-width="1.5" /><circle cx="567" cy="793" r="10" fill="#E1A95F"/><text x="567" y="797" font-size="11" font-weight="700" fill="#0F0E0E" text-anchor="middle">6</text><use href="#lC" x="628" y="803" width="96" height="64" /><use href="#pC" x="738" y="803" width="48" height="64" /><use href="#pD" x="800" y="803" width="48" height="64" /><use href="#lD" x="862" y="803" width="96" height="64" /><rect x="0" y="900" width="1440" height="130" rx="0" fill="#141414" stroke="none" stroke-width="1" /><text x="24" y="930" font-size="15" font-weight="700" fill="#F9F7F3" text-anchor="start">3 · The pair open: one canvas, one half picked</text><circle cx="34" cy="954" r="10" fill="#E1A95F"/><text x="34" y="958" font-size="11" font-weight="700" fill="#0F0E0E" text-anchor="middle">1</text><text x="52" y="958" font-size="11" font-weight="500" fill="#DAD8D4" text-anchor="start">One half is always picked (the open-frame mark); hovering the other shows a dashed mark. Click it, or ⇥, to switch.</text><circle cx="734" cy="954" r="10" fill="#E1A95F"/><text x="734" y="958" font-size="11" font-weight="700" fill="#0F0E0E" text-anchor="middle">2</text><text x="752" y="958" font-size="11" font-weight="500" fill="#DAD8D4" text-anchor="start">Gap: the film between frames, black by default, 1 mm of 37 (D6). Layout, order and gap live in “Half-Frame Pair”.</text><circle cx="34" cy="980" r="10" fill="#E1A95F"/><text x="34" y="984" font-size="11" font-weight="700" fill="#0F0E0E" text-anchor="middle">3</text><text x="52" y="984" font-size="11" font-weight="500" fill="#DAD8D4" text-anchor="start">Linked sections (chain) write both halves. Film Format reads “Set by Pair”: 135 half, 24 mm, so grain is half-frame grain.</text><circle cx="734" cy="980" r="10" fill="#E1A95F"/><text x="734" y="984" font-size="11" font-weight="700" fill="#0F0E0E" text-anchor="middle">4</text><text x="752" y="984" font-size="11" font-weight="500" fill="#DAD8D4" text-anchor="start">Left / Right in the panel header: the same pick as the canvas, with the file name, so it is never ambiguous.</text><circle cx="34" cy="1006" r="10" fill="#E1A95F"/><text x="34" y="1010" font-size="11" font-weight="700" fill="#0F0E0E" text-anchor="middle">5</text><text x="52" y="1010" font-size="11" font-weight="500" fill="#DAD8D4" text-anchor="start">“this half” sections edit only the picked half. A short note at the foot says which is which.</text><circle cx="734" cy="1006" r="10" fill="#E1A95F"/><text x="734" y="1010" font-size="11" font-weight="700" fill="#0F0E0E" text-anchor="middle">6</text><text x="752" y="1010" font-size="11" font-weight="500" fill="#DAD8D4" text-anchor="start">In the filmstrip a pair is one cell: two halves and their gap. Its frames are not listed again (D1).</text>
</svg>
